<svg width="27" height="35" viewBox="0 0 27 35" fill="none" xmlns="http://www.w3.org/2000/svg">
<path fill-rule="evenodd" clip-rule="evenodd" d="M13.7922 1.05217C14.4675 1.22922 14.9366 1.82333 14.9366 2.50171V13.0127H24.2276C24.7821 13.0127 25.2942 13.3002 25.5703 13.7664C25.8466 14.2326 25.8446 14.8064 25.5652 15.2708L14.7257 33.2897C14.3731 33.8757 13.6592 34.1597 12.9839 33.9826C12.3086 33.8056 11.8395 33.2114 11.8395 32.5332V22.0222H2.54851C1.99403 22.0222 1.4819 21.7346 1.20574 21.2684C0.929575 20.8022 0.931557 20.2284 1.21094 19.764L12.0505 1.74512C12.4031 1.15914 13.1169 0.875134 13.7922 1.05217ZM5.24452 19.019H13.3881C14.2433 19.019 14.9366 19.6913 14.9366 20.5206V26.9789L21.5317 16.0159H13.3881C12.5328 16.0159 11.8395 15.3436 11.8395 14.5143V8.05591L5.24452 19.019Z" fill="white" stroke="black"/>
</svg>
