<svg width="36" height="33" viewBox="0 0 36 33" fill="none" xmlns="http://www.w3.org/2000/svg">
<path d="M14 4.81592C14 3.15906 15.3431 1.81592 17 1.81592H19C20.6569 1.81592 22 3.15906 22 4.81592V28.8159C22 30.4728 20.6569 31.8159 19 31.8159H17C15.3431 31.8159 14 30.4728 14 28.8159V4.81592Z" stroke="white" stroke-width="2" stroke-linecap="round" stroke-linejoin="round"/>
<path d="M1 11.8159C1 10.1591 2.34315 8.81592 4 8.81592H6C7.65685 8.81592 9 10.1591 9 11.8159V28.8159C9 30.4728 7.65685 31.8159 6 31.8159H4C2.34315 31.8159 1 30.4728 1 28.8159V11.8159Z" stroke="white" stroke-width="2" stroke-linecap="round" stroke-linejoin="round"/>
<path d="M27 16.8159C27 15.1591 28.3431 13.8159 30 13.8159H32C33.6569 13.8159 35 15.1591 35 16.8159V28.8159C35 30.4728 33.6569 31.8159 32 31.8159H30C28.3431 31.8159 27 30.4728 27 28.8159V16.8159Z" stroke="white" stroke-width="2" stroke-linecap="round" stroke-linejoin="round"/>
</svg>
