<svg width="27" height="28" viewBox="0 0 27 28" fill="none" xmlns="http://www.w3.org/2000/svg">
<path d="M25.7761 22.0435V13.6326C25.7761 12.8226 25.7753 12.4173 25.6748 12.0403C25.5857 11.7063 25.4393 11.3902 25.2413 11.1045C25.0177 10.7822 24.707 10.5148 24.0842 9.98142L16.6514 3.6141C15.4953 2.62369 14.9172 2.12874 14.2667 1.94039C13.6934 1.77443 13.0824 1.77443 12.5091 1.94039C11.8591 2.1286 11.2818 2.62309 10.1275 3.61199L2.69216 9.98142C2.06946 10.5148 1.75883 10.7822 1.53532 11.1045C1.33725 11.3902 1.18977 11.7063 1.10061 12.0403C1 12.4173 1 12.8226 1 13.6326V22.0435C1 23.4561 1 24.1623 1.23574 24.7196C1.55008 25.4624 2.15258 26.0534 2.91145 26.3611C3.48058 26.592 4.2021 26.592 5.64512 26.592C7.08816 26.592 7.81046 26.592 8.3796 26.3611C9.13846 26.0534 9.74081 25.4626 10.0551 24.7196C10.2909 24.1624 10.291 23.4561 10.291 22.0433V20.5273C10.291 18.8527 11.6776 17.4953 13.3881 17.4953C15.0985 17.4953 16.4851 18.8527 16.4851 20.5273V22.0433C16.4851 23.4561 16.4851 24.1624 16.7208 24.7196C17.0351 25.4626 17.6376 26.0534 18.3966 26.3611C18.9656 26.592 19.6872 26.592 21.1301 26.592C22.5732 26.592 23.2956 26.592 23.8646 26.3611C24.6236 26.0534 25.2259 25.4624 25.5403 24.7196C25.776 24.1623 25.7761 23.4561 25.7761 22.0435Z" stroke="white" stroke-width="2" stroke-linecap="round" stroke-linejoin="round"/>
</svg>
