<svg width="22" height="23" viewBox="0 0 22 23" fill="none" xmlns="http://www.w3.org/2000/svg">
<path d="M7.51982 17.3333H3.57858C2.11794 17.3333 1.38762 17.3333 1.23395 17.2193C1.06133 17.0912 1.01915 17.0156 1.00045 16.8009C0.983814 16.6096 1.43142 15.8734 2.32666 14.401C3.25098 12.8807 4.03584 10.6672 4.03584 7.53333C4.03584 5.80059 4.76956 4.13881 6.07558 2.91357C7.38161 1.68833 9.15297 1 11 1C12.847 1 14.6183 1.68833 15.9243 2.91357C17.2304 4.13881 17.9641 5.80059 17.9641 7.53333C17.9641 10.6672 18.749 12.8807 19.6733 14.401C20.5685 15.8734 21.0162 16.6096 20.9996 16.8009C20.9809 17.0156 20.9386 17.0912 20.766 17.2193C20.6123 17.3333 19.882 17.3333 18.4214 17.3333H14.482M7.51982 17.3333L7.51791 18.5C7.51791 20.433 9.07694 22 11 22C12.9231 22 14.482 20.433 14.482 18.5V17.3333M7.51982 17.3333H14.482" stroke="white" stroke-width="2" stroke-linecap="round" stroke-linejoin="round"/>
</svg>
