<svg width="16" height="13" viewBox="0 0 16 13" fill="none" xmlns="http://www.w3.org/2000/svg">
<path d="M0.181824 1.77269C0.181824 1.29572 0.568487 0.909058 1.04546 0.909058H15.1364C15.6133 0.909058 16 1.29572 16 1.77269C16 2.24967 15.6133 2.63633 15.1364 2.63633H1.04546C0.568487 2.63633 0.181824 2.24967 0.181824 1.77269Z" fill="#8E8E8E"/>
<path d="M2.15909 5.22724C2.15909 4.75027 2.54575 4.3636 3.02272 4.3636H13.1591C13.6361 4.3636 14.0227 4.75027 14.0227 5.22724C14.0227 5.70421 13.6361 6.09088 13.1591 6.09088H3.02272C2.54575 6.09088 2.15909 5.70421 2.15909 5.22724Z" fill="#8E8E8E"/>
<path d="M4.13638 8.68179C4.13638 8.20481 4.52305 7.81815 5.00002 7.81815H11.1818C11.6588 7.81815 12.0455 8.20481 12.0455 8.68179C12.0455 9.15876 11.6588 9.54542 11.1818 9.54542H5.00002C4.52305 9.54542 4.13638 9.15876 4.13638 8.68179Z" fill="#8E8E8E"/>
<path d="M6.11362 12.1363C6.11362 11.6594 6.50028 11.2727 6.97725 11.2727H9.20453C9.6815 11.2727 10.0682 11.6594 10.0682 12.1363C10.0682 12.6133 9.6815 13 9.20453 13H6.97725C6.50028 13 6.11362 12.6133 6.11362 12.1363Z" fill="#8E8E8E"/>
</svg>
