<svg width="437" height="409" viewBox="0 0 437 409" fill="none" xmlns="http://www.w3.org/2000/svg">
<path d="M0 166.939C0 74.741 44.7715 0 100 0H337C392.228 0 437 74.741 437 166.939V242.061C437 334.259 392.228 409 337 409H100C44.7715 409 0 334.259 0 242.061V166.939Z" fill="#363636"/>
<path d="M49.7956 140.65H49.7838C44.3804 140.65 40 147.956 40 156.968V255.148C40 264.16 44.3804 271.466 49.7838 271.466H49.7956C55.199 271.466 59.5794 264.16 59.5794 255.148V156.968C59.5794 147.956 55.199 140.65 49.7956 140.65Z" fill="white"/>
<path d="M386.979 135.909H386.967C381.564 135.909 377.183 143.215 377.183 152.227V250.407C377.183 259.419 381.564 266.725 386.967 266.725H386.979C392.382 266.725 396.763 259.419 396.763 250.407V152.227C396.763 143.215 392.382 135.909 386.979 135.909Z" fill="white"/>
<path d="M218.387 84.2921H218.375C212.972 84.2921 208.592 91.5978 208.592 100.61V307.588C208.592 316.6 212.972 323.906 218.375 323.906H218.387C223.791 323.906 228.171 316.6 228.171 307.588V100.61C228.171 91.5978 223.791 84.2921 218.387 84.2921Z" fill="white"/>
<path d="M105.644 83.4694H105.633C100.229 83.4694 95.8488 90.7751 95.8488 99.7871V307.588C95.8488 316.6 100.229 323.906 105.633 323.906H105.644C111.048 323.906 115.428 316.6 115.428 307.588V99.7871C115.428 90.7751 111.048 83.4694 105.644 83.4694Z" fill="white"/>
<path d="M330.296 83.4694H330.284C324.881 83.4694 320.501 90.7751 320.501 99.7871V307.588C320.501 316.6 324.881 323.906 330.284 323.906H330.296C335.7 323.906 340.08 316.6 340.08 307.588V99.7871C340.08 90.7751 335.7 83.4694 330.296 83.4694Z" fill="white"/>
<path d="M162.022 83.4694H162.01C156.606 83.4694 152.226 90.7751 152.226 99.7871V167.428C152.226 176.44 156.606 183.746 162.01 183.746H162.022C167.425 183.746 171.805 176.44 171.805 167.428V99.7871C171.805 90.7751 167.425 83.4694 162.022 83.4694Z" fill="white"/>
<path d="M275.446 83.4694H275.434C270.031 83.4694 265.65 90.7751 265.65 99.7871V167.428C265.65 176.44 270.031 183.746 275.434 183.746H275.446C280.849 183.746 285.23 176.44 285.23 167.428V99.7871C285.23 90.7751 280.849 83.4694 275.446 83.4694Z" fill="white"/>
<path d="M161.669 226.215H161.658C156.254 226.215 151.874 233.521 151.874 242.533V310.174C151.874 319.186 156.254 326.491 161.658 326.491H161.669C167.073 326.491 171.453 319.186 171.453 310.174V242.533C171.453 233.521 167.073 226.215 161.669 226.215Z" fill="white"/>
<path d="M275.105 226.215H275.093C269.69 226.215 265.31 233.521 265.31 242.533V310.174C265.31 319.186 269.69 326.491 275.093 326.491H275.105C280.509 326.491 284.889 319.186 284.889 310.174V242.533C284.889 233.521 280.509 226.215 275.105 226.215Z" fill="white"/>
</svg>
